<?xml version="1.0" encoding="UTF-8" standalone="no"?><!DOCTYPE svg PUBLIC "-//W3C//DTD SVG 1.1//EN" "http://www.w3.org/Graphics/SVG/1.1/DTD/svg11.dtd"><!-- Generated by graphviz version 2.40.1 (20161225.0304)
 --><!-- Title: Rouge Pages: 1 --><svg xmlns="http://www.w3.org/2000/svg" xmlns:xlink="http://www.w3.org/1999/xlink" width="984pt" height="956pt" viewBox="0.00 0.00 984.46 955.60">
<g id="graph0" class="graph" transform="scale(1 1) rotate(0) translate(4 951.6)">
<title>Rouge</title>
<polygon fill="#ffffff" stroke="transparent" points="-4,4 -4,-951.6 980.465,-951.6 980.465,4 -4,4"/>
<!-- AbstractFactory -->
<g id="node1" class="node">
<title>AbstractFactory</title>
<polygon fill="none" stroke="#000000" points="870.2798,-897.5 870.2798,-947.1 976.465,-947.1 976.465,-897.5 870.2798,-897.5"/>
<text text-anchor="middle" x="923.3724" y="-930.5" font-family="Times,serif" font-size="14.00" fill="#000000">AbstractFactory</text>
<polyline fill="none" stroke="#000000" points="870.2798,-922.3 976.465,-922.3 "/>
<text text-anchor="middle" x="923.3724" y="-905.7" font-family="Times,serif" font-size="14.00" fill="#000000"> </text>
</g>
<!-- UnitFactory -->
<g id="node27" class="node">
<title>UnitFactory</title>
<polygon fill="none" stroke="#000000" points="875.1028,-794.1 875.1028,-860.5 971.642,-860.5 971.642,-794.1 875.1028,-794.1"/>
<text text-anchor="middle" x="923.3724" y="-843.9" font-family="Times,serif" font-size="14.00" fill="#000000">&lt;&lt;interface&gt;&gt;</text>
<text text-anchor="middle" x="923.3724" y="-827.1" font-family="Times,serif" font-size="14.00" fill="#000000">UnitFactory</text>
<polyline fill="none" stroke="#000000" points="875.1028,-818.9 971.642,-818.9 "/>
<text text-anchor="middle" x="923.3724" y="-802.3" font-family="Times,serif" font-size="14.00" fill="#000000"> </text>
</g>
<!-- AbstractFactory&#45;&gt;UnitFactory -->
<g id="edge1" class="edge">
<title>AbstractFactory-&gt;UnitFactory</title>
<path fill="none" stroke="#008200" stroke-dasharray="5,2" d="M923.3724,-897.3399C923.3724,-897.3399 923.3724,-870.6682 923.3724,-870.6682"/>
<polygon fill="#008200" stroke="#008200" points="926.8725,-870.6682 923.3724,-860.6682 919.8725,-870.6682 926.8725,-870.6682"/>
</g>
<!-- App -->
<g id="node2" class="node">
<title>App</title>
<polygon fill="none" stroke="#000000" points="428.3724,-8.9 428.3724,-58.5 482.3724,-58.5 482.3724,-8.9 428.3724,-8.9"/>
<text text-anchor="middle" x="454.9257" y="-41.9" font-family="Times,serif" font-size="14.00" fill="#000000">App</text>
<polyline fill="none" stroke="#000000" points="428.3724,-33.7 481.479,-33.7 "/>
<text text-anchor="middle" x="454.9257" y="-17.1" font-family="Times,serif" font-size="14.00" fill="#000000"> </text>
</g>
<!-- DefaultView -->
<g id="node3" class="node">
<title>DefaultView</title>
<polygon fill="none" stroke="#000000" points="276.2244,-103.9 276.2244,-153.5 364.5204,-153.5 364.5204,-103.9 276.2244,-103.9"/>
<text text-anchor="middle" x="320.3724" y="-136.9" font-family="Times,serif" font-size="14.00" fill="#000000">DefaultView</text>
<polyline fill="none" stroke="#000000" points="276.2244,-128.7 364.5204,-128.7 "/>
<text text-anchor="middle" x="320.3724" y="-112.1" font-family="Times,serif" font-size="14.00" fill="#000000"> </text>
</g>
<!-- DefaultView&#45;&gt;App -->
<g id="edge19" class="edge">
<title>DefaultView-&gt;App</title>
<path fill="none" stroke="#000000" d="M364.701,-128C386.6498,-128 408.5132,-128 408.5132,-128 408.5132,-128 408.5132,-33 408.5132,-33 408.5132,-33 416.1142,-33 416.1142,-33"/>
<polygon fill="#000000" stroke="#000000" points="416.1142,-33.0001 422.1141,-29 428.1142,-33 422.1142,-37 416.1142,-33.0001"/>
</g>
<!-- View -->
<g id="node30" class="node">
<title>View</title>
<polygon fill="none" stroke="#000000" points="308.1028,-.5 308.1028,-66.9 404.642,-66.9 404.642,-.5 308.1028,-.5"/>
<text text-anchor="middle" x="356.3724" y="-50.3" font-family="Times,serif" font-size="14.00" fill="#000000">&lt;&lt;interface&gt;&gt;</text>
<text text-anchor="middle" x="356.3724" y="-33.5" font-family="Times,serif" font-size="14.00" fill="#000000">View</text>
<polyline fill="none" stroke="#000000" points="308.1028,-25.3 404.642,-25.3 "/>
<text text-anchor="middle" x="356.3724" y="-8.7" font-family="Times,serif" font-size="14.00" fill="#000000"> </text>
</g>
<!-- DefaultView&#45;&gt;View -->
<g id="edge2" class="edge">
<title>DefaultView-&gt;View</title>
<path fill="none" stroke="#008200" stroke-dasharray="5,2" d="M336.3116,-103.7399C336.3116,-103.7399 336.3116,-77.0682 336.3116,-77.0682"/>
<polygon fill="#008200" stroke="#008200" points="339.8117,-77.0682 336.3116,-67.0682 332.8117,-77.0682 339.8117,-77.0682"/>
</g>
<!-- GameLogic -->
<g id="node4" class="node">
<title>GameLogic</title>
<polygon fill="none" stroke="#000000" points="444.3303,-198.9 444.3303,-248.5 526.4145,-248.5 526.4145,-198.9 444.3303,-198.9"/>
<text text-anchor="middle" x="485.3724" y="-231.9" font-family="Times,serif" font-size="14.00" fill="#000000">GameLogic</text>
<polyline fill="none" stroke="#000000" points="444.3303,-223.7 526.4145,-223.7 "/>
<text text-anchor="middle" x="485.3724" y="-207.1" font-family="Times,serif" font-size="14.00" fill="#000000"> </text>
</g>
<!-- GameModel -->
<g id="node5" class="node">
<title>GameModel</title>
<polygon fill="none" stroke="#000000" points="412.3843,-103.9 412.3843,-153.5 498.3605,-153.5 498.3605,-103.9 412.3843,-103.9"/>
<text text-anchor="middle" x="455.3724" y="-136.9" font-family="Times,serif" font-size="14.00" fill="#000000">GameModel</text>
<polyline fill="none" stroke="#000000" points="412.3843,-128.7 498.3605,-128.7 "/>
<text text-anchor="middle" x="455.3724" y="-112.1" font-family="Times,serif" font-size="14.00" fill="#000000"> </text>
</g>
<!-- GameLogic&#45;&gt;GameModel -->
<g id="edge21" class="edge">
<title>GameLogic-&gt;GameModel</title>
<path fill="none" stroke="#000000" d="M462.3404,-198.7399C462.3404,-198.7399 462.3404,-165.8233 462.3404,-165.8233"/>
<polygon fill="#000000" stroke="#000000" points="462.3405,-165.8233 458.3404,-159.8233 462.3404,-153.8233 466.3404,-159.8232 462.3405,-165.8233"/>
</g>
<!-- GameModel&#45;&gt;App -->
<g id="edge18" class="edge">
<title>GameModel-&gt;App</title>
<path fill="none" stroke="#000000" d="M455.3724,-103.7399C455.3724,-103.7399 455.3724,-70.8233 455.3724,-70.8233"/>
<polygon fill="#000000" stroke="#000000" points="455.3725,-70.8233 451.3724,-64.8233 455.3724,-58.8233 459.3724,-64.8232 455.3725,-70.8233"/>
</g>
<!-- Model -->
<g id="node16" class="node">
<title>Model</title>
<polygon fill="none" stroke="#000000" points="516.1028,-.5 516.1028,-66.9 612.642,-66.9 612.642,-.5 516.1028,-.5"/>
<text text-anchor="middle" x="564.3724" y="-50.3" font-family="Times,serif" font-size="14.00" fill="#000000">&lt;&lt;interface&gt;&gt;</text>
<text text-anchor="middle" x="564.3724" y="-33.5" font-family="Times,serif" font-size="14.00" fill="#000000">Model</text>
<polyline fill="none" stroke="#000000" points="516.1028,-25.3 612.642,-25.3 "/>
<text text-anchor="middle" x="564.3724" y="-8.7" font-family="Times,serif" font-size="14.00" fill="#000000"> </text>
</g>
<!-- GameModel&#45;&gt;Model -->
<g id="edge3" class="edge">
<title>GameModel-&gt;Model</title>
<path fill="none" stroke="#008200" stroke-dasharray="5,2" d="M490.3665,-103.8703C490.3665,-85.6246 490.3665,-64 490.3665,-64 490.3665,-64 505.8351,-64 505.8351,-64"/>
<polygon fill="#008200" stroke="#008200" points="505.8351,-67.5001 515.8351,-64 505.8351,-60.5001 505.8351,-67.5001"/>
</g>
<!-- GameModel&#45;&gt;View -->
<g id="edge40" class="edge">
<title>GameModel-&gt;View</title>
<path fill="none" stroke="#000000" stroke-dasharray="5,2" d="M420.3784,-103.8754C420.3784,-84.5539 420.3784,-61 420.3784,-61 420.3784,-61 413.8113,-61 404.8843,-61"/>
</g>
<!-- InventoryView -->
<g id="node6" class="node">
<title>InventoryView</title>
<polygon fill="none" stroke="#000000" points="0,-198.9 0,-248.5 100.7448,-248.5 100.7448,-198.9 0,-198.9"/>
<text text-anchor="middle" x="50.3724" y="-231.9" font-family="Times,serif" font-size="14.00" fill="#000000">InventoryView</text>
<polyline fill="none" stroke="#000000" points="0,-223.7 100.7448,-223.7 "/>
<text text-anchor="middle" x="50.3724" y="-207.1" font-family="Times,serif" font-size="14.00" fill="#000000"> </text>
</g>
<!-- InventoryView&#45;&gt;DefaultView -->
<g id="edge30" class="edge">
<title>InventoryView-&gt;DefaultView</title>
<path fill="none" stroke="#000000" d="M50.3724,-198.8613C50.3724,-168.1825 50.3724,-120 50.3724,-120 50.3724,-120 264.0897,-120 264.0897,-120"/>
<polygon fill="#000000" stroke="#000000" points="264.0897,-120.0001 270.0897,-116 276.0897,-120 270.0898,-124 264.0897,-120.0001"/>
</g>
<!-- Item -->
<g id="node7" class="node">
<title>Item</title>
<polygon fill="none" stroke="#000000" points="558.1028,-794.1 558.1028,-860.5 654.642,-860.5 654.642,-794.1 558.1028,-794.1"/>
<text text-anchor="middle" x="606.3724" y="-843.9" font-family="Times,serif" font-size="14.00" fill="#000000">&lt;&lt;interface&gt;&gt;</text>
<text text-anchor="middle" x="606.3724" y="-827.1" font-family="Times,serif" font-size="14.00" fill="#000000">Item</text>
<polyline fill="none" stroke="#000000" points="558.1028,-818.9 654.642,-818.9 "/>
<text text-anchor="middle" x="606.3724" y="-802.3" font-family="Times,serif" font-size="14.00" fill="#000000"> </text>
</g>
<!-- Unit -->
<g id="node26" class="node">
<title>Unit</title>
<polygon fill="none" stroke="#000000" points="737.3724,-707.5 737.3724,-757.1 791.3724,-757.1 791.3724,-707.5 737.3724,-707.5"/>
<text text-anchor="middle" x="764.3163" y="-740.5" font-family="Times,serif" font-size="14.00" fill="#000000">Unit</text>
<polyline fill="none" stroke="#000000" points="737.3724,-732.3 791.2602,-732.3 "/>
<text text-anchor="middle" x="764.3163" y="-715.7" font-family="Times,serif" font-size="14.00" fill="#000000"> </text>
</g>
<!-- Item&#45;&gt;Unit -->
<g id="edge28" class="edge">
<title>Item-&gt;Unit</title>
<path fill="none" stroke="#000000" d="M631.5152,-793.9687C631.5152,-766.4869 631.5152,-732 631.5152,-732 631.5152,-732 727.1662,-732 727.1662,-732"/>
<polygon fill="#000000" stroke="#000000" points="737.1662,-732 727.1662,-736.5001 732.1662,-732 727.1662,-732.0001 727.1662,-732.0001 727.1662,-732.0001 732.1662,-732 727.1661,-727.5001 737.1662,-732 737.1662,-732"/>
</g>
<!-- ItemFactory -->
<g id="node8" class="node">
<title>ItemFactory</title>
<polygon fill="none" stroke="#000000" points="564.1627,-897.5 564.1627,-947.1 648.5821,-947.1 648.5821,-897.5 564.1627,-897.5"/>
<text text-anchor="middle" x="606.3724" y="-930.5" font-family="Times,serif" font-size="14.00" fill="#000000">ItemFactory</text>
<polyline fill="none" stroke="#000000" points="564.1627,-922.3 648.5821,-922.3 "/>
<text text-anchor="middle" x="606.3724" y="-905.7" font-family="Times,serif" font-size="14.00" fill="#000000"> </text>
</g>
<!-- ItemFactory&#45;&gt;Item -->
<g id="edge29" class="edge">
<title>ItemFactory-&gt;Item</title>
<path fill="none" stroke="#000000" stroke-dasharray="5,2" d="M606.3724,-897.3399C606.3724,-897.3399 606.3724,-870.6682 606.3724,-870.6682"/>
<polygon fill="#000000" stroke="#000000" points="606.3724,-860.6682 610.8725,-870.6682 606.3724,-865.6682 606.3725,-870.6682 606.3725,-870.6682 606.3725,-870.6682 606.3724,-865.6682 601.8725,-870.6683 606.3724,-860.6682 606.3724,-860.6682"/>
</g>
<!-- KeyboardController -->
<g id="node9" class="node">
<title>KeyboardController</title>
<polygon fill="none" stroke="#000000" points="516.0021,-103.9 516.0021,-153.5 644.7427,-153.5 644.7427,-103.9 516.0021,-103.9"/>
<text text-anchor="middle" x="580.3724" y="-136.9" font-family="Times,serif" font-size="14.00" fill="#000000">KeyboardController</text>
<polyline fill="none" stroke="#000000" points="516.0021,-128.7 644.7427,-128.7 "/>
<text text-anchor="middle" x="580.3724" y="-112.1" font-family="Times,serif" font-size="14.00" fill="#000000"> </text>
</g>
<!-- KeyboardController&#45;&gt;App -->
<g id="edge20" class="edge">
<title>KeyboardController-&gt;App</title>
<path fill="none" stroke="#000000" d="M515.8647,-128C510.5596,-128 507.1813,-128 507.1813,-128 507.1813,-128 507.1813,-33 507.1813,-33 507.1813,-33 494.4907,-33 494.4907,-33"/>
<polygon fill="#000000" stroke="#000000" points="494.4907,-33.0001 488.4907,-37 482.4907,-33 488.4908,-29 494.4907,-33.0001"/>
</g>
<!-- KeyboardController&#45;&gt;Model -->
<g id="edge39" class="edge">
<title>KeyboardController-&gt;Model</title>
<path fill="none" stroke="#000000" stroke-dasharray="5,2" d="M564.3724,-103.7399C564.3724,-92.5251 564.3724,-79.1281 564.3724,-67.0682"/>
</g>
<!-- LanternaView -->
<g id="node10" class="node">
<title>LanternaView</title>
<polygon fill="none" stroke="#000000" points="109.3394,-302.3 109.3394,-351.9 205.4054,-351.9 205.4054,-302.3 109.3394,-302.3"/>
<text text-anchor="middle" x="157.3724" y="-335.3" font-family="Times,serif" font-size="14.00" fill="#000000">LanternaView</text>
<polyline fill="none" stroke="#000000" points="109.3394,-327.1 205.4054,-327.1 "/>
<text text-anchor="middle" x="157.3724" y="-310.5" font-family="Times,serif" font-size="14.00" fill="#000000"> </text>
</g>
<!-- LanternaView&#45;&gt;InventoryView -->
<g id="edge34" class="edge">
<title>LanternaView-&gt;InventoryView</title>
<path fill="none" stroke="#000000" d="M113.8082,-302.1655C113.8082,-271.3684 113.8082,-223 113.8082,-223 113.8082,-223 112.5245,-223 112.5245,-223"/>
<polygon fill="none" stroke="#000000" points="112.971,-223.0001 106.971,-227.0001 100.971,-223 106.9711,-219.0001 112.971,-223.0001"/>
</g>
<!-- LevelView -->
<g id="node12" class="node">
<title>LevelView</title>
<polygon fill="none" stroke="#000000" points="118.277,-198.9 118.277,-248.5 196.4678,-248.5 196.4678,-198.9 118.277,-198.9"/>
<text text-anchor="middle" x="157.3724" y="-231.9" font-family="Times,serif" font-size="14.00" fill="#000000">LevelView</text>
<polyline fill="none" stroke="#000000" points="118.277,-223.7 196.4678,-223.7 "/>
<text text-anchor="middle" x="157.3724" y="-207.1" font-family="Times,serif" font-size="14.00" fill="#000000"> </text>
</g>
<!-- LanternaView&#45;&gt;LevelView -->
<g id="edge35" class="edge">
<title>LanternaView-&gt;LevelView</title>
<path fill="none" stroke="#000000" d="M157.3724,-302.0697C157.3724,-302.0697 157.3724,-260.8581 157.3724,-260.8581"/>
<polygon fill="none" stroke="#000000" points="157.3725,-260.8581 153.3724,-254.8582 157.3724,-248.8581 161.3724,-254.8581 157.3725,-260.8581"/>
</g>
<!-- StatisticsView -->
<g id="node24" class="node">
<title>StatisticsView</title>
<polygon fill="none" stroke="#000000" points="214.9362,-198.9 214.9362,-248.5 311.8086,-248.5 311.8086,-198.9 214.9362,-198.9"/>
<text text-anchor="middle" x="263.3724" y="-231.9" font-family="Times,serif" font-size="14.00" fill="#000000">StatisticsView</text>
<polyline fill="none" stroke="#000000" points="214.9362,-223.7 311.8086,-223.7 "/>
<text text-anchor="middle" x="263.3724" y="-207.1" font-family="Times,serif" font-size="14.00" fill="#000000"> </text>
</g>
<!-- LanternaView&#45;&gt;StatisticsView -->
<g id="edge36" class="edge">
<title>LanternaView-&gt;StatisticsView</title>
<path fill="none" stroke="#000000" d="M200.9366,-302.1655C200.9366,-271.3684 200.9366,-223 200.9366,-223 200.9366,-223 202.7931,-223 202.7931,-223"/>
<polygon fill="none" stroke="#000000" points="202.7931,-223.0001 208.7931,-219 214.7931,-223 208.7932,-227 202.7931,-223.0001"/>
</g>
<!-- LevelLogic -->
<g id="node11" class="node">
<title>LevelLogic</title>
<polygon fill="none" stroke="#000000" points="544.1073,-198.9 544.1073,-248.5 624.6375,-248.5 624.6375,-198.9 544.1073,-198.9"/>
<text text-anchor="middle" x="584.3724" y="-231.9" font-family="Times,serif" font-size="14.00" fill="#000000">LevelLogic</text>
<polyline fill="none" stroke="#000000" points="544.1073,-223.7 624.6375,-223.7 "/>
<text text-anchor="middle" x="584.3724" y="-207.1" font-family="Times,serif" font-size="14.00" fill="#000000"> </text>
</g>
<!-- LevelLogic&#45;&gt;GameModel -->
<g id="edge22" class="edge">
<title>LevelLogic-&gt;GameModel</title>
<path fill="none" stroke="#000000" d="M584.3724,-198.6406C584.3724,-195.8563 584.3724,-194 584.3724,-194 584.3724,-194 480.3504,-194 480.3504,-194 480.3504,-194 480.3504,-165.7599 480.3504,-165.7599"/>
<polygon fill="#000000" stroke="#000000" points="480.3505,-165.7599 476.3505,-159.76 480.3504,-153.7599 484.3505,-159.7599 480.3505,-165.7599"/>
</g>
<!-- LevelView&#45;&gt;DefaultView -->
<g id="edge31" class="edge">
<title>LevelView-&gt;DefaultView</title>
<path fill="none" stroke="#000000" d="M157.3724,-198.6228C157.3724,-173.017 157.3724,-137 157.3724,-137 157.3724,-137 263.8319,-137 263.8319,-137"/>
<polygon fill="#000000" stroke="#000000" points="263.8319,-137.0001 269.8319,-133 275.8319,-137 269.832,-141 263.8319,-137.0001"/>
</g>
<!-- Map -->
<g id="node13" class="node">
<title>Map</title>
<polygon fill="none" stroke="#000000" points="351.3724,-405.7 351.3724,-455.3 405.3724,-455.3 405.3724,-405.7 351.3724,-405.7"/>
<text text-anchor="middle" x="378.202" y="-438.7" font-family="Times,serif" font-size="14.00" fill="#000000">Map</text>
<polyline fill="none" stroke="#000000" points="351.3724,-430.5 405.0316,-430.5 "/>
<text text-anchor="middle" x="378.202" y="-413.9" font-family="Times,serif" font-size="14.00" fill="#000000"> </text>
</g>
<!-- MapView -->
<g id="node15" class="node">
<title>MapView</title>
<polygon fill="none" stroke="#000000" points="330.1028,-293.9 330.1028,-360.3 426.642,-360.3 426.642,-293.9 330.1028,-293.9"/>
<text text-anchor="middle" x="378.3724" y="-343.7" font-family="Times,serif" font-size="14.00" fill="#000000">&lt;&lt;interface&gt;&gt;</text>
<text text-anchor="middle" x="378.3724" y="-326.9" font-family="Times,serif" font-size="14.00" fill="#000000">MapView</text>
<polyline fill="none" stroke="#000000" points="330.1028,-318.7 426.642,-318.7 "/>
<text text-anchor="middle" x="378.3724" y="-302.1" font-family="Times,serif" font-size="14.00" fill="#000000"> </text>
</g>
<!-- Map&#45;&gt;MapView -->
<g id="edge4" class="edge">
<title>Map-&gt;MapView</title>
<path fill="none" stroke="#008200" stroke-dasharray="5,2" d="M378.3724,-405.4697C378.3724,-405.4697 378.3724,-370.497 378.3724,-370.497"/>
<polygon fill="#008200" stroke="#008200" points="381.8725,-370.497 378.3724,-360.497 374.8725,-370.497 381.8725,-370.497"/>
</g>
<!-- State -->
<g id="node21" class="node">
<title>State</title>
<polygon fill="none" stroke="#000000" points="507.3724,-302.3 507.3724,-351.9 561.3724,-351.9 561.3724,-302.3 507.3724,-302.3"/>
<text text-anchor="middle" x="534.3689" y="-335.3" font-family="Times,serif" font-size="14.00" fill="#000000">State</text>
<polyline fill="none" stroke="#000000" points="507.3724,-327.1 561.3654,-327.1 "/>
<text text-anchor="middle" x="534.3689" y="-310.5" font-family="Times,serif" font-size="14.00" fill="#000000"> </text>
</g>
<!-- Map&#45;&gt;State -->
<g id="edge26" class="edge">
<title>Map-&gt;State</title>
<path fill="none" stroke="#000000" d="M405.48,-430C421.614,-430 438.9681,-430 438.9681,-430 438.9681,-430 438.9681,-327 438.9681,-327 438.9681,-327 495.2886,-327 495.2886,-327"/>
<polygon fill="#000000" stroke="#000000" points="495.2886,-327.0001 501.2885,-323 507.2886,-327 501.2886,-331 495.2886,-327.0001"/>
</g>
<!-- MapBuilder -->
<g id="node14" class="node">
<title>MapBuilder</title>
<polygon fill="none" stroke="#000000" points="331.5463,-509.1 331.5463,-558.7 415.1985,-558.7 415.1985,-509.1 331.5463,-509.1"/>
<text text-anchor="middle" x="373.3724" y="-542.1" font-family="Times,serif" font-size="14.00" fill="#000000">MapBuilder</text>
<polyline fill="none" stroke="#000000" points="331.5463,-533.9 415.1985,-533.9 "/>
<text text-anchor="middle" x="373.3724" y="-517.3" font-family="Times,serif" font-size="14.00" fill="#000000"> </text>
</g>
<!-- MapBuilder&#45;&gt;GameLogic -->
<g id="edge23" class="edge">
<title>MapBuilder-&gt;GameLogic</title>
<path fill="none" stroke="#000000" stroke-dasharray="5,2" d="M410.2854,-508.8621C410.2854,-495.5903 410.2854,-482 410.2854,-482 410.2854,-482 475.7166,-482 475.7166,-482 475.7166,-482 475.7166,-258.9372 475.7166,-258.9372"/>
<polygon fill="#000000" stroke="#000000" points="475.7166,-248.9372 480.2166,-258.9371 475.7166,-253.9372 475.7166,-258.9372 475.7166,-258.9372 475.7166,-258.9372 475.7166,-253.9372 471.2166,-258.9372 475.7166,-248.9372 475.7166,-248.9372"/>
</g>
<!-- MapBuilder&#45;&gt;Map -->
<g id="edge24" class="edge">
<title>MapBuilder-&gt;Map</title>
<path fill="none" stroke="#000000" stroke-dasharray="5,2" d="M378.3724,-508.8697C378.3724,-508.8697 378.3724,-465.6581 378.3724,-465.6581"/>
<polygon fill="#000000" stroke="#000000" points="378.3724,-455.6581 382.8725,-465.6581 378.3724,-460.6581 378.3725,-465.6581 378.3725,-465.6581 378.3725,-465.6581 378.3724,-460.6581 373.8725,-465.6582 378.3724,-455.6581 378.3724,-455.6581"/>
</g>
<!-- StateView -->
<g id="node23" class="node">
<title>StateView</title>
<polygon fill="none" stroke="#000000" points="330.1028,-190.5 330.1028,-256.9 426.642,-256.9 426.642,-190.5 330.1028,-190.5"/>
<text text-anchor="middle" x="378.3724" y="-240.3" font-family="Times,serif" font-size="14.00" fill="#000000">&lt;&lt;interface&gt;&gt;</text>
<text text-anchor="middle" x="378.3724" y="-223.5" font-family="Times,serif" font-size="14.00" fill="#000000">StateView</text>
<polyline fill="none" stroke="#000000" points="330.1028,-215.3 426.642,-215.3 "/>
<text text-anchor="middle" x="378.3724" y="-198.7" font-family="Times,serif" font-size="14.00" fill="#000000"> </text>
</g>
<!-- MapView&#45;&gt;StateView -->
<g id="edge27" class="edge">
<title>MapView-&gt;StateView</title>
<path fill="none" stroke="#000000" stroke-dasharray="5,2" d="M378.3724,-293.8144C378.3724,-293.8144 378.3724,-266.9232 378.3724,-266.9232"/>
<polygon fill="#000000" stroke="#000000" points="378.3724,-256.9232 382.8725,-266.9232 378.3724,-261.9232 378.3725,-266.9232 378.3725,-266.9232 378.3725,-266.9232 378.3724,-261.9232 373.8725,-266.9233 378.3724,-256.9232 378.3724,-256.9232"/>
</g>
<!-- Movement -->
<g id="node17" class="node">
<title>Movement</title>
<polygon fill="none" stroke="#000000" points="672.708,-794.1 672.708,-860.5 756.0368,-860.5 756.0368,-794.1 672.708,-794.1"/>
<text text-anchor="middle" x="714.3724" y="-843.9" font-family="Times,serif" font-size="14.00" fill="#000000">&lt;&lt;record&gt;&gt;</text>
<text text-anchor="middle" x="714.3724" y="-827.1" font-family="Times,serif" font-size="14.00" fill="#000000">Movement</text>
<polyline fill="none" stroke="#000000" points="672.708,-818.9 756.0368,-818.9 "/>
<text text-anchor="middle" x="714.3724" y="-802.3" font-family="Times,serif" font-size="14.00" fill="#000000"> </text>
</g>
<!-- Movement&#45;&gt;Unit -->
<g id="edge15" class="edge">
<title>Movement-&gt;Unit</title>
<path fill="none" stroke="#000000" d="M746.7046,-794.0736C746.7046,-794.0736 746.7046,-769.2718 746.7046,-769.2718"/>
<polygon fill="none" stroke="#000000" points="746.7047,-769.2718 742.7046,-763.2718 746.7046,-757.2718 750.7046,-763.2717 746.7047,-769.2718"/>
</g>
<!-- NoUpdate -->
<g id="node18" class="node">
<title>NoUpdate</title>
<polygon fill="none" stroke="#000000" points="433.6059,-509.1 433.6059,-558.7 507.1389,-558.7 507.1389,-509.1 433.6059,-509.1"/>
<text text-anchor="middle" x="470.3724" y="-542.1" font-family="Times,serif" font-size="14.00" fill="#000000">NoUpdate</text>
<polyline fill="none" stroke="#000000" points="433.6059,-533.9 507.1389,-533.9 "/>
<text text-anchor="middle" x="470.3724" y="-517.3" font-family="Times,serif" font-size="14.00" fill="#000000"> </text>
</g>
<!-- StateUpdate -->
<g id="node22" class="node">
<title>StateUpdate</title>
<polygon fill="none" stroke="#000000" points="507.1028,-397.3 507.1028,-463.7 603.642,-463.7 603.642,-397.3 507.1028,-397.3"/>
<text text-anchor="middle" x="555.3724" y="-447.1" font-family="Times,serif" font-size="14.00" fill="#000000">&lt;&lt;interface&gt;&gt;</text>
<text text-anchor="middle" x="555.3724" y="-430.3" font-family="Times,serif" font-size="14.00" fill="#000000">StateUpdate</text>
<polyline fill="none" stroke="#000000" points="507.1028,-422.1 603.642,-422.1 "/>
<text text-anchor="middle" x="555.3724" y="-405.5" font-family="Times,serif" font-size="14.00" fill="#000000"> </text>
</g>
<!-- NoUpdate&#45;&gt;StateUpdate -->
<g id="edge5" class="edge">
<title>NoUpdate-&gt;StateUpdate</title>
<path fill="none" stroke="#008200" stroke-dasharray="5,2" d="M507.1437,-533C512.3237,-533 515.9271,-533 515.9271,-533 515.9271,-533 515.9271,-473.7788 515.9271,-473.7788"/>
<polygon fill="#008200" stroke="#008200" points="519.4272,-473.7788 515.9271,-463.7788 512.4272,-473.7788 519.4272,-473.7788"/>
</g>
<!-- PlayerInputStrategy -->
<g id="node19" class="node">
<title>PlayerInputStrategy</title>
<polygon fill="none" stroke="#000000" points="608.3885,-612.5 608.3885,-662.1 736.3563,-662.1 736.3563,-612.5 608.3885,-612.5"/>
<text text-anchor="middle" x="672.3724" y="-645.5" font-family="Times,serif" font-size="14.00" fill="#000000">PlayerInputStrategy</text>
<polyline fill="none" stroke="#000000" points="608.3885,-637.3 736.3563,-637.3 "/>
<text text-anchor="middle" x="672.3724" y="-620.7" font-family="Times,serif" font-size="14.00" fill="#000000"> </text>
</g>
<!-- Strategy -->
<g id="node25" class="node">
<title>Strategy</title>
<polygon fill="none" stroke="#000000" points="624.1028,-500.7 624.1028,-567.1 720.642,-567.1 720.642,-500.7 624.1028,-500.7"/>
<text text-anchor="middle" x="672.3724" y="-550.5" font-family="Times,serif" font-size="14.00" fill="#000000">&lt;&lt;interface&gt;&gt;</text>
<text text-anchor="middle" x="672.3724" y="-533.7" font-family="Times,serif" font-size="14.00" fill="#000000">Strategy</text>
<polyline fill="none" stroke="#000000" points="624.1028,-525.5 720.642,-525.5 "/>
<text text-anchor="middle" x="672.3724" y="-508.9" font-family="Times,serif" font-size="14.00" fill="#000000"> </text>
</g>
<!-- PlayerInputStrategy&#45;&gt;Strategy -->
<g id="edge6" class="edge">
<title>PlayerInputStrategy-&gt;Strategy</title>
<path fill="none" stroke="#008200" stroke-dasharray="5,2" d="M672.3724,-612.2697C672.3724,-612.2697 672.3724,-577.297 672.3724,-577.297"/>
<polygon fill="#008200" stroke="#008200" points="675.8725,-577.297 672.3724,-567.297 668.8725,-577.297 675.8725,-577.297"/>
</g>
<!-- Position -->
<g id="node20" class="node">
<title>Position</title>
<polygon fill="none" stroke="#000000" points="773.708,-794.1 773.708,-860.5 857.0368,-860.5 857.0368,-794.1 773.708,-794.1"/>
<text text-anchor="middle" x="815.3724" y="-843.9" font-family="Times,serif" font-size="14.00" fill="#000000">&lt;&lt;record&gt;&gt;</text>
<text text-anchor="middle" x="815.3724" y="-827.1" font-family="Times,serif" font-size="14.00" fill="#000000">Position</text>
<polyline fill="none" stroke="#000000" points="773.708,-818.9 857.0368,-818.9 "/>
<text text-anchor="middle" x="815.3724" y="-802.3" font-family="Times,serif" font-size="14.00" fill="#000000"> </text>
</g>
<!-- Position&#45;&gt;Unit -->
<g id="edge16" class="edge">
<title>Position-&gt;Unit</title>
<path fill="none" stroke="#000000" d="M782.5402,-794.0736C782.5402,-794.0736 782.5402,-769.2718 782.5402,-769.2718"/>
<polygon fill="none" stroke="#000000" points="782.5403,-769.2718 778.5402,-763.2718 782.5402,-757.2718 786.5402,-763.2717 782.5403,-769.2718"/>
</g>
<!-- State&#45;&gt;GameLogic -->
<g id="edge11" class="edge">
<title>State-&gt;GameLogic</title>
<path fill="none" stroke="#000000" d="M520.0671,-302.0697C520.0671,-302.0697 520.0671,-260.8581 520.0671,-260.8581"/>
<polygon fill="none" stroke="#000000" points="520.0672,-260.8581 516.0672,-254.8582 520.0671,-248.8581 524.0672,-254.8581 520.0672,-260.8581"/>
</g>
<!-- State&#45;&gt;LevelLogic -->
<g id="edge10" class="edge">
<title>State-&gt;LevelLogic</title>
<path fill="none" stroke="#000000" d="M552.7398,-302.0697C552.7398,-302.0697 552.7398,-260.8581 552.7398,-260.8581"/>
<polygon fill="none" stroke="#000000" points="552.7399,-260.8581 548.7399,-254.8582 552.7398,-248.8581 556.7399,-254.8581 552.7399,-260.8581"/>
</g>
<!-- State&#45;&gt;StateView -->
<g id="edge7" class="edge">
<title>State-&gt;StateView</title>
<path fill="none" stroke="#008200" stroke-dasharray="5,2" d="M513.7198,-302.0131C513.7198,-280.5161 513.7198,-253 513.7198,-253 513.7198,-253 436.8536,-253 436.8536,-253"/>
<polygon fill="#008200" stroke="#008200" points="436.8536,-249.5001 426.8536,-253 436.8536,-256.5001 436.8536,-249.5001"/>
</g>
<!-- StateUpdate&#45;&gt;State -->
<g id="edge25" class="edge">
<title>StateUpdate-&gt;State</title>
<path fill="none" stroke="#000000" stroke-dasharray="5,2" d="M534.3724,-397.2144C534.3724,-397.2144 534.3724,-362.122 534.3724,-362.122"/>
<polygon fill="#000000" stroke="#000000" points="534.3724,-352.122 538.8725,-362.122 534.3724,-357.122 534.3725,-362.122 534.3725,-362.122 534.3725,-362.122 534.3724,-357.122 529.8725,-362.1221 534.3724,-352.122 534.3724,-352.122"/>
</g>
<!-- StateView&#45;&gt;DefaultView -->
<g id="edge33" class="edge">
<title>StateView-&gt;DefaultView</title>
<path fill="none" stroke="#000000" stroke-dasharray="5,2" d="M347.3116,-180.4736C347.3116,-180.4736 347.3116,-153.6718 347.3116,-153.6718"/>
<polygon fill="#000000" stroke="#000000" points="347.3116,-190.4736 342.8117,-180.4736 347.3116,-185.4736 347.3117,-180.4736 347.3117,-180.4736 347.3117,-180.4736 347.3116,-185.4736 351.8117,-180.4737 347.3116,-190.4736 347.3116,-190.4736"/>
</g>
<!-- StatisticsView&#45;&gt;DefaultView -->
<g id="edge32" class="edge">
<title>StatisticsView-&gt;DefaultView</title>
<path fill="none" stroke="#000000" d="M294.0165,-198.7399C294.0165,-198.7399 294.0165,-165.8233 294.0165,-165.8233"/>
<polygon fill="#000000" stroke="#000000" points="294.0166,-165.8233 290.0165,-159.8233 294.0165,-153.8233 298.0165,-159.8232 294.0166,-165.8233"/>
</g>
<!-- Strategy&#45;&gt;StateUpdate -->
<g id="edge17" class="edge">
<title>Strategy-&gt;StateUpdate</title>
<path fill="none" stroke="#000000" d="M634.6901,-500.4535C634.6901,-470.0802 634.6901,-430 634.6901,-430 634.6901,-430 613.7967,-430 613.7967,-430"/>
<polygon fill="#000000" stroke="#000000" points="603.7967,-430 613.7967,-425.5001 608.7967,-430 613.7967,-430.0001 613.7967,-430.0001 613.7967,-430.0001 608.7967,-430 613.7966,-434.5001 603.7967,-430 603.7967,-430"/>
</g>
<!-- Strategy&#45;&gt;Unit -->
<g id="edge12" class="edge">
<title>Strategy-&gt;Unit</title>
<path fill="none" stroke="#000000" d="M720.7972,-533C742.9612,-533 764.3724,-533 764.3724,-533 764.3724,-533 764.3724,-695.4615 764.3724,-695.4615"/>
<polygon fill="#000000" stroke="#000000" points="764.3725,-695.4615 768.3724,-701.4615 764.3724,-707.4615 760.3724,-701.4615 764.3725,-695.4615"/>
</g>
<!-- Unit&#45;&gt;State -->
<g id="edge13" class="edge">
<title>Unit-&gt;State</title>
<path fill="none" stroke="#000000" d="M777.8724,-707.2525C777.8724,-618.888 777.8724,-327 777.8724,-327 777.8724,-327 573.8316,-327 573.8316,-327"/>
<polygon fill="none" stroke="#000000" points="573.8316,-327.0001 567.8316,-331 561.8316,-327 567.8316,-323 573.8316,-327.0001"/>
</g>
<!-- UnitView -->
<g id="node29" class="node">
<title>UnitView</title>
<polygon fill="none" stroke="#000000" points="494.1028,-604.1 494.1028,-670.5 590.642,-670.5 590.642,-604.1 494.1028,-604.1"/>
<text text-anchor="middle" x="542.3724" y="-653.9" font-family="Times,serif" font-size="14.00" fill="#000000">&lt;&lt;interface&gt;&gt;</text>
<text text-anchor="middle" x="542.3724" y="-637.1" font-family="Times,serif" font-size="14.00" fill="#000000">UnitView</text>
<polyline fill="none" stroke="#000000" points="494.1028,-628.9 590.642,-628.9 "/>
<text text-anchor="middle" x="542.3724" y="-612.3" font-family="Times,serif" font-size="14.00" fill="#000000"> </text>
</g>
<!-- Unit&#45;&gt;UnitView -->
<g id="edge8" class="edge">
<title>Unit-&gt;UnitView</title>
<path fill="none" stroke="#008200" stroke-dasharray="5,2" d="M750.8724,-707.2348C750.8724,-688.4598 750.8724,-666 750.8724,-666 750.8724,-666 600.7306,-666 600.7306,-666"/>
<polygon fill="#008200" stroke="#008200" points="600.7306,-662.5001 590.7306,-666 600.7305,-669.5001 600.7306,-662.5001"/>
</g>
<!-- UnitFactory&#45;&gt;Unit -->
<g id="edge14" class="edge">
<title>UnitFactory-&gt;Unit</title>
<path fill="none" stroke="#000000" stroke-dasharray="5,2" d="M923.3724,-793.9687C923.3724,-766.4869 923.3724,-732 923.3724,-732 923.3724,-732 801.7055,-732 801.7055,-732"/>
<polygon fill="#000000" stroke="#000000" points="791.7055,-732 801.7055,-727.5001 796.7055,-732 801.7055,-732.0001 801.7055,-732.0001 801.7055,-732.0001 796.7055,-732 801.7054,-736.5001 791.7055,-732 791.7055,-732"/>
</g>
<!-- UnitUpdate -->
<g id="node28" class="node">
<title>UnitUpdate</title>
<polygon fill="none" stroke="#000000" points="524.7153,-509.1 524.7153,-558.7 606.0295,-558.7 606.0295,-509.1 524.7153,-509.1"/>
<text text-anchor="middle" x="565.3724" y="-542.1" font-family="Times,serif" font-size="14.00" fill="#000000">UnitUpdate</text>
<polyline fill="none" stroke="#000000" points="524.7153,-533.9 606.0295,-533.9 "/>
<text text-anchor="middle" x="565.3724" y="-517.3" font-family="Times,serif" font-size="14.00" fill="#000000"> </text>
</g>
<!-- UnitUpdate&#45;&gt;StateUpdate -->
<g id="edge9" class="edge">
<title>UnitUpdate-&gt;StateUpdate</title>
<path fill="none" stroke="#008200" stroke-dasharray="5,2" d="M564.1786,-508.8697C564.1786,-508.8697 564.1786,-473.897 564.1786,-473.897"/>
<polygon fill="#008200" stroke="#008200" points="567.6787,-473.897 564.1786,-463.897 560.6787,-473.897 567.6787,-473.897"/>
</g>
<!-- UnitView&#45;&gt;Strategy -->
<g id="edge37" class="edge">
<title>UnitView-&gt;Strategy</title>
<path fill="none" stroke="#000000" stroke-dasharray="5,2" d="M568.6664,-604.0617C568.6664,-584.2789 568.6664,-563 568.6664,-563 568.6664,-563 596.8689,-563 623.8594,-563"/>
</g>
<!-- UnitView&#45;&gt;UnitUpdate -->
<g id="edge38" class="edge">
<title>UnitView-&gt;UnitUpdate</title>
<path fill="none" stroke="#000000" stroke-dasharray="5,2" d="M546.6909,-604.0144C546.6909,-589.3732 546.6909,-572.4654 546.6909,-558.922"/>
</g>
</g>
</svg>